<svg width="150" height="100" viewBox="0 0 150 100" fill="none" xmlns="http://www.w3.org/2000/svg">
<path d="M84.3626 40.7019C84.3626 41.9258 84.0518 43.345 83.1533 44.6016H85.693V24.9889H77.575V33.0008C81.9649 34.3619 84.3626 37.1753 84.3626 40.7019Z" fill="#213E99"/>
<path d="M70.3293 32.3029C72.1595 32.3029 73.8653 32.7315 75.169 33.0763C72.4077 32.5899 68.1255 33.2934 65.9143 35.0376V44.6015H74.0356V33.7205C75.429 33.9722 76.7551 34.5103 77.93 35.3007V44.6015H79.6947C78.0365 46.476 74.9297 47.6171 72.2527 47.1973V47.5905C79.9696 48.1996 83.2395 44.5365 83.2395 40.4181C83.2395 35.5663 78.6896 32.7283 74.0356 32.1519V24.9888H65.9143V32.2318C60.6564 33.2857 55.5092 36.4079 55.5092 41.5843C55.5092 49.5502 66.6368 54.4847 76.3303 54.4847C91.0504 54.4847 102.376 47.3729 102.376 37.3819C102.376 25.2932 86.0214 16.6665 73.1767 16.6665C58.457 16.6665 47.6187 26.0177 47.6187 36.0087C47.6187 41.1794 50.525 45.5149 54.1864 48.5366L54.4629 48.3505C51.5639 45.9412 48.9475 42.1865 48.9475 37.0259C49.7128 26.0944 63.1865 19.9364 75.1775 19.9364C83.6557 19.9364 98.89 21.8965 98.89 36.0753C98.89 43.4693 90.9879 53.0865 74.388 53.0865C65.8885 53.0865 59.2869 48.5366 59.2869 41.9911C59.2873 36.3292 63.7217 32.3029 70.3293 32.3029ZM38.8822 82.9372V81.8195H41.7291V72.1607H34.1265V81.8195H37.0461V82.9372H26.5626V81.8195H29.2267V62.1479H26.5626V61.0302H37.0461V62.1479H34.1265V70.8658H41.7291V62.1479H38.8822V61.0302H49.2603V62.1479H46.5923V81.8195H49.2603V82.9372H38.8822ZM53.2798 61.0302H58.0368V63.6261H53.2798V61.0302ZM50.9399 82.9372V81.8195H53.497V68.3471H50.9399V67.2298H58.2168V81.8195H60.5967V82.9372H50.9399ZM61.6211 82.9372V81.8195H64.2509V59.2651H61.6211V58.1506H69.0062V81.8195H71.491V82.9372H61.6211ZM78.8935 82.9372C76.3005 82.9372 74.897 81.604 74.897 79.549V68.3471H72.3367V67.2294H74.897V60.9975C76.3392 60.9975 77.8496 61.0302 79.3278 60.9975V67.2294H83.0026V68.3471H79.3278V81.8195H83.0764V82.9372H78.8935ZM101.374 74.721C100.978 68.7757 96.008 66.724 92.5814 66.724C88.7295 66.724 83.541 69.1366 83.541 74.9725C83.541 79.1914 86.6394 83.3332 92.6912 83.3332C98.1311 83.3332 100.369 79.6939 100.907 78.2158C101.338 77.1364 101.447 75.8742 101.374 74.721ZM92.5814 82.4318C90.9257 82.4318 89.9178 81.604 89.4475 80.7022C89.161 80.1613 88.765 79.3718 88.765 74.9019C88.765 71.5875 88.836 67.7678 92.5459 67.7678C94.0241 67.7678 95.1389 68.3802 95.7537 69.7518C95.9692 70.2543 96.2235 70.7597 96.2562 74.7565C96.2917 78.4345 96.2917 82.4318 92.5814 82.4318ZM114.071 82.9372V81.8195H116.162V72.5603C116.162 70.4698 116.162 68.4181 113.856 68.4181C112.558 68.4181 110.433 69.713 109.927 71.8414C109.746 72.4889 109.782 73.1751 109.782 74.9014V81.8195H112.159V82.9372H102.507V81.8195H105.064V68.3471H102.507V67.2294H109.782V69.6064C110.575 68.5985 111.225 67.874 112.774 67.2649C113.675 66.8858 114.643 66.6898 115.621 66.6885C115.908 66.6885 116.771 66.6885 117.779 66.9751C120.807 67.874 120.952 70.1828 120.952 71.8414V81.8195H123.437V82.9372H114.071Z" fill="#213E99"/>
</svg>
