<svg width="16" height="16" viewBox="0 0 16 16" fill="none" xmlns="http://www.w3.org/2000/svg">
<path d="M8.00261 0C4.66268 0 3.68588 0.00344645 3.49601 0.0192016C2.8106 0.0761911 2.3841 0.184139 1.91945 0.415543C1.56136 0.593404 1.27895 0.799575 1.00024 1.08858C0.492639 1.61564 0.185005 2.26407 0.0736409 3.03484C0.0194972 3.40903 0.0037463 3.48534 0.000546906 5.39664C-0.000683632 6.03374 0.000546906 6.87221 0.000546906 7.99686C0.000546906 11.335 0.00423852 12.3111 0.0202355 12.5006C0.0756097 13.1678 0.180205 13.5875 0.401702 14.0466C0.825007 14.9254 1.63347 15.5852 2.58591 15.8314C2.91569 15.9163 3.27993 15.9631 3.74753 15.9852C3.94565 15.9938 5.96496 16 7.98551 16C10.006 16 12.0266 15.9975 12.2198 15.9877C12.7612 15.9622 13.0756 15.92 13.4233 15.8301C13.8955 15.709 14.3356 15.4862 14.7129 15.1773C15.0902 14.8684 15.3954 14.4808 15.6075 14.0417C15.8246 13.5936 15.9348 13.1579 15.9846 12.5256C15.9954 12.3878 16 10.1898 16 7.99477C16 5.79938 15.9951 3.60547 15.9842 3.46762C15.9338 2.8251 15.8237 2.39306 15.5995 1.93641C15.4155 1.56259 15.2112 1.28343 14.9147 0.997992C14.3855 0.492349 13.7383 0.184631 12.9668 0.0733601C12.5931 0.0193247 12.5187 0.00332336 10.6064 0H8.00261Z" fill="url(#paint0_radial_2842_599)"/>
<path d="M8.00261 0C4.66268 0 3.68588 0.00344645 3.49601 0.0192016C2.8106 0.0761911 2.3841 0.184139 1.91945 0.415543C1.56136 0.593404 1.27895 0.799575 1.00024 1.08858C0.492639 1.61564 0.185005 2.26407 0.0736409 3.03484C0.0194972 3.40903 0.0037463 3.48534 0.000546906 5.39664C-0.000683632 6.03374 0.000546906 6.87221 0.000546906 7.99686C0.000546906 11.335 0.00423852 12.3111 0.0202355 12.5006C0.0756097 13.1678 0.180205 13.5875 0.401702 14.0466C0.825007 14.9254 1.63347 15.5852 2.58591 15.8314C2.91569 15.9163 3.27993 15.9631 3.74753 15.9852C3.94565 15.9938 5.96496 16 7.98551 16C10.006 16 12.0266 15.9975 12.2198 15.9877C12.7612 15.9622 13.0756 15.92 13.4233 15.8301C13.8955 15.709 14.3356 15.4862 14.7129 15.1773C15.0902 14.8684 15.3954 14.4808 15.6075 14.0417C15.8246 13.5936 15.9348 13.1579 15.9846 12.5256C15.9954 12.3878 16 10.1898 16 7.99477C16 5.79938 15.9951 3.60547 15.9842 3.46762C15.9338 2.8251 15.8237 2.39306 15.5995 1.93641C15.4155 1.56259 15.2112 1.28343 14.9147 0.997992C14.3855 0.492349 13.7383 0.184631 12.9668 0.0733601C12.5931 0.0193247 12.5187 0.00332336 10.6064 0H8.00261Z" fill="url(#paint1_radial_2842_599)"/>
<path d="M7.999 2.09253C6.39487 2.09253 6.19355 2.09955 5.56352 2.12822C4.93471 2.15703 4.5055 2.2566 4.12994 2.40271C3.74146 2.55361 3.41192 2.75548 3.08361 3.084C2.75506 3.41239 2.55325 3.74202 2.40189 4.13048C2.25546 4.50627 2.15578 4.93572 2.12748 5.56445C2.09942 6.19466 2.09204 6.39615 2.09204 8.00072C2.09204 9.60528 2.09918 9.80604 2.12773 10.4362C2.15664 11.0652 2.2562 11.4945 2.40214 11.8702C2.55312 12.2588 2.75493 12.5884 3.08336 12.9168C3.41155 13.2455 3.74109 13.4478 4.12932 13.5987C4.50513 13.7448 4.93446 13.8444 5.56315 13.8732C6.19318 13.9019 6.39438 13.9089 7.99838 13.9089C9.60264 13.9089 9.80334 13.9019 10.4334 13.8732C11.0622 13.8444 11.4919 13.7448 11.8677 13.5987C12.2561 13.4478 12.5851 13.2455 12.9133 12.9168C13.2418 12.5884 13.4436 12.2588 13.595 11.8703C13.7402 11.4945 13.8399 11.0651 13.8694 10.4364C13.8977 9.80616 13.9051 9.60528 13.9051 8.00072C13.9051 6.39615 13.8977 6.19478 13.8694 5.56457C13.8399 4.9356 13.7402 4.50627 13.595 4.13061C13.4436 3.74202 13.2418 3.41239 12.9133 3.084C12.5847 2.75535 12.2562 2.55349 11.8673 2.40271C11.4908 2.2566 11.0613 2.15703 10.4325 2.12822C9.80248 2.09955 9.6019 2.09253 7.99728 2.09253H7.999ZM7.46913 3.15723C7.62639 3.15699 7.80187 3.15723 7.999 3.15723C9.57606 3.15723 9.76298 3.1629 10.3858 3.19121C10.9616 3.21755 11.2742 3.3138 11.4824 3.39467C11.7581 3.50176 11.9546 3.62977 12.1612 3.83655C12.3679 4.04334 12.4959 4.24028 12.6032 4.51599C12.684 4.72401 12.7804 5.03665 12.8066 5.6127C12.8349 6.23552 12.841 6.42262 12.841 7.99936C12.841 9.57611 12.8349 9.7632 12.8066 10.386C12.7803 10.9621 12.684 11.2747 12.6032 11.4827C12.4961 11.7584 12.3679 11.9548 12.1612 12.1614C11.9544 12.3682 11.7582 12.4962 11.4824 12.6033C11.2744 12.6846 10.9616 12.7806 10.3858 12.8069C9.7631 12.8352 9.57606 12.8414 7.999 12.8414C6.42182 12.8414 6.2349 12.8352 5.61225 12.8069C5.03635 12.7803 4.7238 12.6841 4.51547 12.6032C4.23982 12.4961 4.04294 12.3681 3.83621 12.1613C3.62948 11.9545 3.5015 11.7581 3.3942 11.4822C3.31335 11.2742 3.217 10.9616 3.19079 10.3855C3.16249 9.76271 3.15683 9.57562 3.15683 7.99789C3.15683 6.42015 3.16249 6.23405 3.19079 5.61122C3.21712 5.03518 3.31335 4.72253 3.3942 4.51427C3.50125 4.23856 3.62948 4.04162 3.83621 3.83483C4.04294 3.62804 4.23982 3.50003 4.51547 3.3927C4.72367 3.31146 5.03635 3.21545 5.61225 3.18899C6.15713 3.16437 6.36829 3.15699 7.46913 3.15576V3.15723ZM11.1519 4.13824C11.0117 4.13824 10.8746 4.17983 10.7581 4.25774C10.6415 4.33566 10.5507 4.4464 10.497 4.57596C10.4434 4.70553 10.4294 4.84809 10.4567 4.98563C10.4841 5.12316 10.5516 5.24949 10.6508 5.34864C10.7499 5.44778 10.8763 5.51528 11.0138 5.54261C11.1513 5.56994 11.2938 5.55587 11.4233 5.50217C11.5528 5.44847 11.6635 5.35756 11.7413 5.24093C11.8192 5.12431 11.8607 4.98721 11.8607 4.84698C11.8607 4.45556 11.5432 4.13799 11.1519 4.13799V4.13824ZM7.999 4.96662C6.32387 4.96662 4.96572 6.32513 4.96572 8.00072C4.96572 9.6763 6.32387 11.0342 7.999 11.0342C9.67413 11.0342 11.0319 9.6763 11.0319 8.00072C11.0319 6.32513 9.67401 4.96662 7.99888 4.96662H7.999ZM7.999 6.03132C9.0863 6.03132 9.96786 6.913 9.96786 8.00072C9.96786 9.08832 9.0863 9.97011 7.999 9.97011C6.91157 9.97011 6.03014 9.08832 6.03014 8.00072C6.03014 6.913 6.91157 6.03132 7.999 6.03132Z" fill="white"/>
<defs>
<radialGradient id="paint0_radial_2842_599" cx="0" cy="0" r="1" gradientUnits="userSpaceOnUse" gradientTransform="translate(4.25002 17.2323) rotate(-90) scale(15.8572 14.7484)">
<stop stop-color="#FFDD55"/>
<stop offset="0.1" stop-color="#FFDD55"/>
<stop offset="0.5" stop-color="#FF543E"/>
<stop offset="1" stop-color="#C837AB"/>
</radialGradient>
<radialGradient id="paint1_radial_2842_599" cx="0" cy="0" r="1" gradientUnits="userSpaceOnUse" gradientTransform="translate(-2.68008 1.15261) rotate(78.6806) scale(7.08823 29.218)">
<stop stop-color="#3771C8"/>
<stop offset="0.128" stop-color="#3771C8"/>
<stop offset="1" stop-color="#6600FF" stop-opacity="0"/>
</radialGradient>
</defs>
</svg>
